{"title":"Sigala - Easy Love (2015.House)","uid":12526385,"size":81828243,"categoryP":"video","categoryS":"music_videos","magnet":"?xt=urn:btih:ce90115e74ce6af9726d8dae5ff929ffa8aa5403&amp;dn=Sigala+-+Easy+Love+%282015.House%29&amp;tr=udp%3A%2F%2Ftracker.leechers-paradise.org%3A6969&amp;tr=udp%3A%2F%2Fzer0day.ch%3A1337&amp;tr=udp%3A%2F%2Fopen.demonii.com%3A1337&amp;tr=udp%3A%2F%2Ftracker.coppersurfer.tk%3A6969&amp;tr=udp%3A%2F%2Fexodus.desync.com%3A6969","seeders":1,"leechers":0,"uploader":"MeRaDil","files":1,"time":1444066960,"description":"SIGALA - EASY LOVE\r\n\r\n \nhttp://gifyu.com/images/sigala-01.png\r\n \nhttp://gifyu.com/images/sigala-02.png\r\n \nhttp://gifyu.com/images/sigala-03.png\r\n\r\n\r\nMEDIA INFO\r\nGeneral\r\nSigala - Easy Love\r\nFormat                                   : MPEG-4\r\nFormat profile                           : Base Media\r\nCodec ID                                 : isom\r\nFile size                                : 78.0 MiB\r\nDuration                                 : 2mn 57s\r\nOverall bit rate                         : 3 694 Kbps\r\nMusicVid name                            : Easy Love\r\nPerformer                                : Sigala\r\nGenre                                    : Tropical House\r\nContentType                              : Music Video\r\nRecorded date                            : 2015\r\nMake                                     : MeRaDil\r\nRelease time                             : UK - august 4 - 2015\r\n\r\nVideo\r\nID                                       : 1\r\nFormat                                   : AVC\r\nFormat/Info                              : Advanced Video Codec\r\nFormat profile                           :   \r\nFormat settings, CABAC                   : Yes\r\nFormat settings, ReFrames                : 3 frames\r\nCodec ID                                 : avc1\r\nCodec ID/Info                            : Advanced Video Coding\r\nDuration                                 : 2mn 57s\r\nBit rate                                 : 3 433 Kbps\r\nWidth                                    : 1 920 pixels\r\nHeight                                   : 1 080 pixels\r\nDisplay aspect ratio                     : 16:9\r\nFrame rate mode                          : Constant\r\nFrame rate                               : 25.000 fps\r\nColor space                              : YUV\r\nChroma subsampling                       : 4:2:0\r\nBit depth                                : 8 bits\r\nScan type                                : Progressive\r\nBits/(Pixel*Frame)                       : 0.066\r\nStream size                              : 72.5 MiB (93%)\r\n\r\nAudio\r\nID                                       : 2\r\nFormat                                   : AAC\r\nFormat/Info                              : Advanced Audio Codec\r\nFormat profile                           : LC\r\nCodec ID                                 : 40\r\nDuration                                 : 2mn 57s\r\nBit rate mode                            : Constant\r\nBit rate                                 : 256 Kbps\r\nChannel(s)                               : 2 channels\r\nChannel positions                        : Front: L R\r\nSampling rate                            : 44.1 KHz\r\nCompression mode                         : Lossy\r\nStream size                              : 5.41 MiB (7%)\r\n\r\nSigala * Tropical House * Promo","torrent":{"xt":"urn:btih:ce90115e74ce6af9726d8dae5ff929ffa8aa5403","amp;dn":"Sigala+-+Easy+Love+%282015.House%29","amp;tr":["udp%3A%2F%2Ftracker.leechers-paradise.org%3A6969","udp%3A%2F%2Fzer0day.ch%3A1337","udp%3A%2F%2Fopen.demonii.com%3A1337","udp%3A%2F%2Ftracker.coppersurfer.tk%3A6969","udp%3A%2F%2Fexodus.desync.com%3A6969"],"infoHash":"ce90115e74ce6af9726d8dae5ff929ffa8aa5403","infoHashBuffer":{"type":"Buffer","data":[206,144,17,94,116,206,106,249,114,109,141,174,95,249,41,255,168,170,84,3]},"announce":[],"urlList":[]}}